<?xml version="1.0" encoding="utf-8"?>
<!-- Generator: Adobe Illustrator 22.1.0, SVG Export Plug-In . SVG Version: 6.00 Build 0)  -->
<svg version="1.1" xmlns="http://www.w3.org/2000/svg" xmlns:xlink="http://www.w3.org/1999/xlink" x="0px" y="0px"
	 viewBox="0 0 2365 3957" style="enable-background:new 0 0 2365 3957;" xml:space="preserve">
<style type="text/css">
	.st0{fill:none;stroke:#000000;stroke-width:5.6693;stroke-miterlimit:10;}
	.st1{fill:none;stroke:#000000;stroke-width:5.6693;stroke-miterlimit:10;stroke-dasharray:22.6628,22.6628;}
	.st2{fill:none;stroke:#000000;stroke-width:5.6693;stroke-miterlimit:10;stroke-dasharray:22.6666,22.6666;}
	.st3{fill:none;stroke:#000000;stroke-width:5.6693;stroke-miterlimit:10;stroke-dasharray:22.6742,22.6742;}
	.st4{fill:none;stroke:#000000;stroke-width:5.6693;stroke-miterlimit:10;stroke-dasharray:18.4409,18.4409;}
	.f1court{fill:#FFF;}
	.f4courtback{fill:#FFF;}
	.f4triangle{fill:#FFF;}
	.f5court{fill:#FFF;}
	.f5back{fill:#FFF;}
	.f1left{fill:#FFF;}
	.f1front{fill:#FFF;}
	.f3court{fill:#FFF;}
	.f3courtInner{fill:#FFF;}
	.f4courtFront{fill:#FFF;}
	.f4triangleOuter{fill:#FFF;}
	.f5frontCorner{fill:#FFF;}
	.f1entrance{fill:#FFF;}
	.f4leftCorner{fill:#FFF;}
	.f5triangleRoom{fill:#FFF;}
	.f2courtyardWrap{fill:#FFF;}
	.f3bottomCorner{fill:#FFF;}
	.f3middleBackCorridor{fill:#FFF;}
	.f3backRight{fill:#FFF;}
	.f3leftBack{fill:#FFF;}
	.f5frontLeftFront{fill:#FFF;}
	.f2leftMiddle{fill:#FFF;}
	.f3front{fill:#FFF;}
	.f2rightBottomCorridor{fill:#FFF;}
	.f5leftBottomCorridor{fill:#FFF;}
</style>
<g id="elevator">
	<g>
		<g>
			<line class="st0" x1="1629" y1="3319.5" x2="1619.2" y2="3313.8"/>
			<polyline class="st0" points="1607.6,3307.2 1597.8,3301.5 1597.8,3290.2 			"/>
			<line class="st1" x1="1597.8" y1="3267.5" x2="1597.8" y2="332.7"/>
			<line class="st0" x1="1597.8" y1="321.3" x2="1597.8" y2="310"/>
		</g>
	</g>
	<g>
		<g>
			<line class="st0" x1="1673" y1="3258" x2="1673" y2="3246.7"/>
			<line class="st2" x1="1673" y1="3224" x2="1673" y2="288.7"/>
			<line class="st0" x1="1673" y1="277.3" x2="1673" y2="266"/>
		</g>
	</g>
	<g>
		<g>
			<line class="st0" x1="1749" y1="3302" x2="1749" y2="3290.7"/>
			<line class="st3" x1="1749" y1="3268" x2="1750.8" y2="331.7"/>
			<polyline class="st0" points="1750.8,320.3 1750.9,309 1741,314.7 			"/>
			<line class="st4" x1="1725.1" y1="323.9" x2="1701.1" y2="337.7"/>
			<line class="st0" x1="1693.1" y1="342.3" x2="1683.3" y2="348"/>
		</g>
	</g>
	<g>
		<path d="M146,3583.7H99.8v-91.2H63.6v-31.5c24.4-0.4,42.2-8.9,47.3-36H146V3583.7z"/>
	</g>
	<g>
		<path d="M54.3,2850.2c-0.9-18.2,6.2-31.5,18.6-44.4c26.2-27.3,67.3-38,67.3-63.9c0-10-9.5-15.8-18.9-15.8
			c-17.8,0-22.9,14.9-22.6,30H57.2c0.7-46,25.8-64.6,66.4-64.6c32.4,0,62.8,14.2,62.8,50.6c0,27.5-21.1,38.8-41.5,51.5
			c-11.3,7.1-23.3,13.1-31.5,18.9H186v37.7H54.3z"/>
	</g>
	<g>
		<path d="M93.2,2062.3c-0.2,7.1,1.8,12.9,5.5,16.9s9.5,6.2,16.6,6.2c13.5,0,20.6-9.1,20.6-18.2c0-18-17.8-17.3-28.9-17.3v-27.3
			c10.9,0.9,27.5-1.3,27.5-16c0-10.2-9.1-14-18.2-14c-10.9,0-18.9,5.6-20.2,16.7H54.5c1.6-36,30.6-51.3,63.3-51.3
			c37.1,0,60.2,17.1,60.2,43.7c0,14.2-5.5,24.6-18.2,30.9c14.2,5.5,22.4,17.3,22.4,32.6c0,36.4-27.3,54.8-69.3,54.8
			c-36.4,0-63.9-18.9-63.3-57.7H93.2z"/>
	</g>
	<g>
		<path d="M47.4,1313.5l73-86.8h43.1v89.5h19.5v34.4h-19.5v32.6h-44v-32.6H47.4V1313.5z M82.3,1316.2h37.3v-47.7L82.3,1316.2z"/>
	</g>
	<g>
		<path d="M69.4,493.2h100.3v37.7h-67.9l-5.1,23.5c9.8-7.1,20.6-8.4,32.4-8.4c30,0,53.3,18.2,53.3,49.5c0,43.3-34.4,57.5-70.2,57.5
			c-34.2,0-56.4-15.3-65.3-44.2l46.4-4.7c0,0.4,0.4,1.1,0.4,1.6c2.7,8.2,11.5,12.7,20,12.7c13.5,0,22.4-9.1,22.4-20.6
			c0-12.9-6.2-22.6-20.2-22.6c-6.9,0-15.1,1.8-18.6,8.7l-43.5-1.6L69.4,493.2z"/>
	</g>
	<g>
		<path d="M2027.9,3621.5h-44.8v-60.6h44.2v7.3h-36v18.6h33.2v7.3h-33.2v20.3h36.6V3621.5z"/>
		<path d="M2073.7,3621.5h-7.4v-27.2c0-7.7-2.2-11.6-9.5-11.6c-4.2,0-11.7,2.7-11.7,14.7v24.1h-7.4v-44.2h7v6.2h0.2
			c1.6-2.4,5.7-7.5,13.3-7.5c6.8,0,15.5,2.8,15.5,15.4V3621.5z"/>
		<path d="M2093.8,3583.5v28.7c0,3.5,3,3.5,4.5,3.5h2.6v5.8c-2.7,0.3-4.8,0.6-5.6,0.6c-7.3,0-9-4.1-9-9.5v-29.1h-6v-6.2h6V3565h7.4
			v12.3h7.1v6.2H2093.8z"/>
		<path d="M2116.6,3621.5h-7.4v-44.2h7v7.3h0.2c3-5.2,6.8-8.6,12.4-8.6c0.9,0,1.4,0.1,1.9,0.3v7.7h-2.8c-6.9,0-11.3,5.4-11.3,11.8
			V3621.5z"/>
		<path d="M2135.1,3590.8c0.3-10.6,7.3-14.7,18.2-14.7c3.5,0,16.4,1,16.4,12.3v25.4c0,1.9,0.9,2.6,2.4,2.6c0.7,0,1.6-0.2,2.4-0.3
			v5.4c-1.3,0.3-2.4,0.8-4.1,0.8c-6.6,0-7.6-3.4-7.9-6.8c-2.9,3.1-7.3,7.2-16,7.2c-8.1,0-13.9-5.2-13.9-12.8
			c0-3.7,1.1-12.3,13.4-13.9l12.2-1.5c1.8-0.2,3.9-0.8,3.9-5.2c0-4.6-3.4-7.2-10.4-7.2c-8.4,0-9.6,5.2-10.1,8.5H2135.1z
			 M2162.3,3599c-1.2,0.9-3,1.6-12.2,2.8c-3.6,0.5-9.5,1.6-9.5,7.2c0,4.8,2.4,7.7,8,7.7c6.9,0,13.7-4.5,13.7-10.4V3599z"/>
		<path d="M2218.3,3621.5h-7.4v-27.2c0-7.7-2.2-11.6-9.5-11.6c-4.2,0-11.7,2.7-11.7,14.7v24.1h-7.4v-44.2h7v6.2h0.2
			c1.6-2.4,5.7-7.5,13.3-7.5c6.8,0,15.5,2.8,15.5,15.4V3621.5z"/>
		<path d="M2256.9,3592.2c-0.9-5.9-4.2-9.5-10.5-9.5c-9.2,0-12.2,8.8-12.2,16.6c0,7.6,1.9,17,12.1,17c5,0,9.3-3.7,10.6-10.5h7.2
			c-0.8,7-5.1,16.9-18,16.9c-12.4,0-19.8-9.4-19.8-22.1c0-13.7,6.6-24.6,21.2-24.6c11.6,0,16,8.4,16.6,16.1H2256.9z"/>
		<path d="M2309,3607.7c-0.3,2.1-2.3,8.4-7.9,12.1c-2,1.4-4.9,3-12,3c-12.4,0-19.8-9.4-19.8-22.1c0-13.7,6.6-24.6,21.2-24.6
			c12.8,0,19,10.1,19,25.8h-32.3c0,9.2,4.3,14.5,12.8,14.5c7,0,11.1-5.4,11.4-8.7H2309z M2301.9,3595.9c-0.4-6.8-3.3-13.2-12.3-13.2
			c-6.8,0-12.2,6.3-12.2,13.2H2301.9z"/>
	</g>
</g>
<g id="_x31__zones">
	<polygon class="f1court" points="924,3259 474.6,3518.5 924.9,3778.5 1375.2,3518.5 1299,3474.5 1318.1,3463.5 1019.3,3291 
		1000.3,3302 	"/>
	<polygon class="f1left" points="474.6,3518.5 361.1,3584 810.6,3843.5 924,3778 	"/>
	<polygon class="f1front" points="1432.4,3615.5 1319.8,3550.5 811.5,3844 924,3909 	"/>
	<path class="f1entrance" d="M1368.3,3652c140.7,66.3,349.9,63,481.1-12.8c113.7-65.6,139.9-161.7,68.9-239.7l-154.2,24l79.1-45.7
		l-112.6-65l-411.2,237.4l113,65.2L1368.3,3652z"/>
</g>
<g id="_x31__drawing">
	<polyline class="st0" points="1470.5,3629 1470.5,3593 924,3908.5 240.7,3514 842.6,3166.5 881.6,3189 917.1,3168.5 1254,3363 	"/>
	<line class="st0" x1="1289.5" y1="3383.5" x2="1332.8" y2="3408.5"/>
	<line class="st0" x1="1364" y1="3426.5" x2="1372.6" y2="3431.5"/>
	<line class="st0" x1="1361.4" y1="3438" x2="1496.5" y2="3360"/>
	<line class="st0" x1="1300.4" y1="3389.8" x2="1313.4" y2="3382.3"/>
	<polyline class="st0" points="1348.4,3362.5 1395.2,3335.5 1467,3377 	"/>
	<polyline class="st0" points="1559.7,3323.5 1673.2,3258 1749.4,3302 1674,3345.5 1655.8,3335 	"/>
	<line class="st0" x1="361.8" y1="3583.9" x2="878" y2="3285.9"/>
	<polyline class="st0" points="913.6,3265.5 924.6,3259.2 944,3248 	"/>
	<polyline class="st0" points="1234.1,3415.5 1317.2,3463.5 1326.7,3458 1298.2,3474.5 1318.9,3486.5 	"/>
	<line class="st0" x1="1355.3" y1="3507.5" x2="1403.8" y2="3535.5"/>
	<line class="st0" x1="883.3" y1="3802" x2="1337.1" y2="3540"/>
	<line class="st0" x1="1355.3" y1="3529.5" x2="1374.4" y2="3518.5"/>
	<line class="st0" x1="914.5" y1="3831" x2="966.5" y2="3861"/>
	<line class="st0" x1="881.6" y1="3753" x2="848.7" y2="3734"/>
	<line class="st0" x1="823.6" y1="3719.5" x2="577.6" y2="3577.5"/>
	<line class="st0" x1="550.8" y1="3562" x2="521.3" y2="3545"/>
	<line class="st0" x1="486.7" y1="3525" x2="475.4" y2="3518.5"/>
	<line class="st0" x1="531.9" y1="3551.1" x2="490.4" y2="3575.1"/>
	<line class="st0" x1="457.3" y1="3594" x2="418.3" y2="3616.5"/>
	<line class="st0" x1="869.5" y1="3746" x2="827.9" y2="3770"/>
	<line class="st0" x1="1021" y1="3770.5" x2="979.5" y2="3746.5"/>
	<line class="st0" x1="1431.8" y1="3615.3" x2="1394.6" y2="3593.8"/>
	<line class="st0" x1="1360.5" y1="3574.5" x2="1318.9" y2="3550.5"/>
	<polyline class="st0" points="924.9,3259 953.4,3275.5 1000.3,3302.5 1019.3,3291.5 1200.3,3396 	"/>
	<polyline class="st0" points="1281.3,3442.8 1185.1,3498.3 923.2,3347 953.5,3275.5 	"/>
	<line class="st0" x1="1132.1" y1="3356.6" x2="1036" y2="3412.1"/>
	<line class="st0" x1="942.2" y1="3466" x2="1028.8" y2="3516"/>
	<line class="st0" x1="1075.6" y1="3543" x2="973.4" y2="3602"/>
	<line class="st0" x1="933.6" y1="3625" x2="800.2" y2="3548"/>
	<line class="st0" x1="753.4" y1="3521" x2="895.5" y2="3439"/>
	<path class="st0" d="M1730.6,3312.8l112.6,65l-79.1,45.7l154.2-24c71,78.1,44.8,174.1-68.9,239.7c-131.2,75.7-340.4,79-481.1,12.8"
		/>
	<line class="st0" x1="1703.5" y1="3362.5" x2="1760.6" y2="3395.5"/>
</g>
<g id="_x32__zones">
	<path class="f2courtyardWrap" d="M695.2,2849l-220.8-127.5l464.2-268l114.3,66l21.7-12.5l263.3,152l-21.7,12.5l75.3,43.5l-353.3,204l-76.2-44
		l224.3-129.5l0-43.5l-226-130l-75.3,0L661,2701.3l0,44.7l18,10.4L735,2724l88.3,51L695.2,2849L695.2,2849z"/>
	<path class="f2courtyardWrap" d="M811.2,3050"/>
	<polygon class="f2leftMiddle" points="1038.1,2919 961.9,2875 887.4,2875 851.1,2854 906.5,2822 824.2,2774.5 695.2,2849 840.7,2933 
		724.6,3000 811.2,3050 	"/>
	<polygon class="f2rightBottomCorridor" points="1504,2780 1391.5,2715 811.2,3050 923.8,3115 	"/>
	<path class="f2rightBottomCorridor" d="M670.1,2507.5"/>
</g>
<g id="_x32__drawing">
	<polygon class="st0" points="836.3,2369.5 961.9,2442 940.3,2454.5 1052.8,2519.5 1074.5,2507 1337.8,2659 1316.1,2671.5 
		1390.7,2714.6 1504,2780 923.8,3115 724.6,3000 840.7,2933 474.3,2721.5 886.1,2483.8 849.3,2462.5 772.3,2507 809.5,2528.5 
		725.5,2480 801.7,2436 761.9,2413 	"/>
	<polygon class="st0" points="660.5,2746.5 678.7,2757 735.9,2724 903.9,2821 846.7,2854 884,2875.5 961.9,2875.5 1186.2,2746 
		1186.2,2702 961.9,2572.5 885.7,2572.5 876.2,2578 1074.5,2692.5 1037.3,2714 838.9,2599.5 661.4,2702 	"/>
	<line class="st0" x1="1391.5" y1="2714.5" x2="838.1" y2="3034"/>
	<line class="st0" x1="751.9" y1="2984.2" x2="792.2" y2="3007.5"/>
</g>
<g id="_x33__zones">
	<polygon class="f3court" points="939.4,1756.5 1014.7,1800 1036.4,1787.5 1336.9,1961 1300.5,1982 1375.9,2025.5 926.4,2285 
		473.5,2023.5 	"/>
	<polygon class="f3courtInner" points="884.8,1874.5 659.7,2004.5 659.7,2051.5 877,2177 960.2,2177 1184.5,2047.5 1184.5,2006.5 
		957.6,1875.5 	"/>
	<polygon class="f3bottomCorner" points="981.5,2252.8 1093.1,2317.2 1038.1,2349 927.3,2285 	"/>
	<polygon class="f3front" points="2031.4,1646.5 2144.9,1712 1752.6,1938.5 1807.1,1970 1543.9,2122 1487.6,2089.5 1093.5,2317 
		981.8,2252.5 	"/>
	<polygon class="f3middleBackCorridor" points="1675.5,1765 1750.9,1808.5 1375.4,2025.2 1300.1,1981.8 	"/>
	<polygon class="f3backRight" points="2201.2,1549.5 2313.8,1614.5 2144.9,1712 2031.4,1646.5 	"/>
	<polygon class="f3leftBack" points="791.5,1841.2 670.4,1771.3 391.2,1932.5 511.1,2001.8 	"/>
</g>
<g id="_x33__drawing">
	<path class="st0" d="M809.5,1830.5"/>
	<polyline class="st0" points="849.3,1764.5 886.1,1785.8 474.3,2023.5 1038.1,2349 1487.2,2089.7 	"/>
	<polyline class="st0" points="1390.7,2016.6 1316.1,1973.5 1337.8,1961 1036.8,1787.3 1015.2,1799.8 940.3,1756.5 961.9,1744 
		836.3,1671.5 387.3,1930.8 511.6,2002.5 	"/>
	<polyline class="st0" points="838.9,1901.5 661.4,2004 660.5,2048.5 678.7,2059 678.7,2059 846.7,2156 846.7,2156 884,2177.5 
		961.9,2177.5 1186.2,2048 1186.2,2004 961.9,1874.5 885.7,1874.5 876.2,1880 	"/>
	<polyline class="st0" points="971.9,2258.7 1391.5,2016.5 1480.7,1965 	"/>
	<line class="st0" x1="1337.8" y1="1960.5" x2="1413.1" y2="1917"/>
	<polyline class="st0" points="2135.4,1587 2087.7,1614.5 2030.6,1581.5 1974.3,1614 2031.4,1647 1750.9,1809 1675.5,1765.5 
		1448.6,1896.5 	"/>
	<polyline class="st0" points="2152.7,1577 2200.3,1549.5 2312.9,1614.5 1751.7,1938.5 	"/>
	<polyline class="st0" points="2172.6,1565.5 2115.5,1532.5 2059.2,1565 2116.3,1598 	"/>
	<line class="st0" x1="1750.9" y1="1809" x2="1674.6" y2="1853"/>
	<line class="st0" x1="1658.2" y1="1862.5" x2="1534.4" y2="1934"/>
	<polyline class="st0" points="1620.1,1862.5 1807.1,1970.5 1543.9,2122.5 1450.3,2068.5 	"/>
	<line class="st0" x1="1432.2" y1="2058" x2="1356.8" y2="2014.5"/>
	<polyline class="st0" points="1320.4,1993.5 1300.5,1982 1316.1,1973 	"/>
	<line class="st0" x1="982" y1="2252.9" x2="1018.4" y2="2273.9"/>
	<line class="st0" x1="1056.3" y1="2296" x2="1093.1" y2="2317.2"/>
	<line class="st0" x1="1319.6" y1="2058" x2="1356" y2="2079"/>
	<line class="st0" x1="1394.1" y1="2101" x2="1430.9" y2="2122.2"/>
	<line class="st0" x1="876.2" y1="1880" x2="838.9" y2="1901.5"/>
</g>
<g id="_x34__zones">
	<polygon class="f4courtback" points="1336.9,1208.5 1036.4,1035 1019.9,1044.5 944.6,1001 696.9,1144 771.4,1187 886.6,1120.5 961,1122.5 
		1185.3,1252 1185.3,1296 	"/>
	<polygon class="f4leftCorner" points="696.9,1144 772.3,1187.5 661.4,1251.5 663.1,1295.5 886.6,1424.5 962.8,1424.5 1039,1468.5 
		816.4,1597 364.4,1336 	"/>
	<polygon class="f4courtFront" points="1039,1468.5 962.8,1424.5 1185.3,1296 1260.7,1339.5 	"/>
	<polygon class="f4triangle" points="1589.8,1149.5 1647.8,1268 1628.7,1279 1421.8,1246.5 	"/>
	<path class="f4triangleOuter" d="M1563.8,1077.5l243.4,140.5l-263.3,152L1301,1229.8L1563.8,1077.5z M1421.8,1246.5l207,32.5l19.1-11l-58-118.5
		L1421.8,1246.5z"/>
</g>
<g id="_x34__drawing">
	<polygon class="st0" points="2312.9,862.5 2200.3,797.5 2172.6,813.5 2115.5,780.5 2059.2,813 2116.3,846 2087.7,862.5 
		2030.6,829.5 1974.3,862 2031.4,895 1750.9,1057 1675.5,1013.5 1469.4,1132.5 1394.9,1089.5 1320.4,1132.5 1394.9,1175.5 
		1337.8,1208.5 1037.3,1035 1019.9,1045 943.7,1001 960.2,991.5 842.4,923.5 767.9,966.5 885.7,1034.5 363.5,1336 928.1,1662 
		1488.5,1338.5 1543.9,1370.5 1807.1,1218.5 1751.7,1186.5 	"/>
	<polygon class="st0" points="961.9,1122.5 1186.2,1252 1186.2,1296 961.9,1425.5 887.4,1425.5 662.3,1295.5 662.3,1252 
		889.6,1120.8 	"/>
	<line class="st0" x1="521.1" y1="1299" x2="880.5" y2="1506.5"/>
	<line class="st0" x1="916" y1="1527" x2="962.8" y2="1554"/>
	<line class="st0" x1="1000.9" y1="1576" x2="1037.7" y2="1597.2"/>
	<line class="st0" x1="487.3" y1="1279.5" x2="474.7" y2="1272.2"/>
	<line class="st0" x1="531.4" y1="1304.9" x2="493.3" y2="1326.9"/>
	<line class="st0" x1="457.9" y1="1347.5" x2="420.6" y2="1369"/>
	<line class="st0" x1="871" y1="1501" x2="832.9" y2="1523"/>
	<line class="st0" x1="797.4" y1="1543.5" x2="760.1" y2="1565"/>
	<path class="st0" d="M926,1532.7"/>
	<line class="st0" x1="936.8" y1="1526" x2="887.4" y2="1554.5"/>
	<line class="st0" x1="851.9" y1="1575" x2="814.7" y2="1596.5"/>
	<line class="st0" x1="1082.7" y1="1442.7" x2="1375.9" y2="1273.5"/>
	<line class="st0" x1="972.3" y1="1506.5" x2="1049.4" y2="1462"/>
	<line class="st0" x1="1149.3" y1="1532.7" x2="992.2" y2="1442"/>
	<line class="st0" x1="1093.4" y1="1564.9" x2="981.4" y2="1500.2"/>
	<line class="st0" x1="885.7" y1="1034.5" x2="942.9" y2="1067.5"/>
	<line class="st0" x1="809.9" y1="1078.7" x2="830.3" y2="1090.5"/>
	<line class="st0" x1="866.6" y1="1111.5" x2="886.6" y2="1123"/>
	<line class="st0" x1="754.9" y1="1176" x2="773.1" y2="1186.5"/>
	<line class="st0" x1="717.7" y1="1155.5" x2="697.3" y2="1143.7"/>
	<line class="st0" x1="662.3" y1="1295.5" x2="626.8" y2="1316"/>
	<line class="st0" x1="1168.9" y1="1306" x2="1217.4" y2="1334"/>
	<line class="st0" x1="1264.6" y1="1338.3" x2="1218.2" y2="1311.5"/>
	<line class="st0" x1="1290.1" y1="1353" x2="1376.7" y2="1403"/>
	<polyline class="st0" points="1095,1436.2 1160.4,1473.9 1272.8,1409 1233,1386 1252,1375 1225.2,1359.5 1291.9,1398 	"/>
	<line class="st0" x1="1283.2" y1="1263" x2="1207" y2="1219"/>
	<polyline class="st0" points="1337.8,1208.5 1300.5,1230 1320.4,1241.5 	"/>
	<line class="st0" x1="1356.8" y1="1262.5" x2="1394.1" y2="1284"/>
	<line class="st0" x1="1429.6" y1="1304.5" x2="1488.5" y2="1338.5"/>
	<line class="st0" x1="1355.9" y1="1327" x2="1320.1" y2="1306.3"/>
	<line class="st0" x1="1394.1" y1="1349" x2="1432.6" y2="1371.2"/>
	<line class="st0" x1="1533.5" y1="1333.5" x2="1592.4" y2="1299.5"/>
	<polyline class="st0" points="1628.7,1278.5 1421.8,1246 1589.8,1149 1647.8,1267.5 	"/>
	<line class="st0" x1="1563.8" y1="1078" x2="1583.7" y2="1089.5"/>
	<line class="st0" x1="1619.2" y1="1046" x2="1639.1" y2="1057.5"/>
	<line class="st0" x1="1675.5" y1="1078.5" x2="1732.7" y2="1111.5"/>
	<line class="st0" x1="1750.9" y1="1057" x2="1683.3" y2="1096"/>
	<line class="st0" x1="1648.7" y1="1116" x2="1639.1" y2="1121.5"/>
	<line class="st0" x1="1620.1" y1="1110.5" x2="1751.7" y2="1186.5"/>
	<line class="st0" x1="1769" y1="1132.5" x2="1807.1" y2="1154.5"/>
	<line class="st0" x1="2172.6" y1="813.5" x2="2152.7" y2="825"/>
	<line class="st0" x1="2116.3" y1="846" x2="2135.4" y2="835"/>
	<line class="st0" x1="2087.7" y1="862.5" x2="2125" y2="884"/>
	<line class="st0" x1="2160.5" y1="904.5" x2="2200.3" y2="927.5"/>
	<line class="st0" x1="2144.5" y1="959.7" x2="2104.6" y2="936.7"/>
	<line class="st0" x1="2032.3" y1="894.5" x2="2069.6" y2="916"/>
</g>
<g id="_x35__zones">
	<path class="f5court" d="M1320.4,470l-19.9,11.5l75.3,43.5L926.4,784.5l-452.1-261l469.4-271L1320.4,470z M961.9,374l-72.7,0L664,504
		l0,44l223.4,129l78.8,0l222.1-128.2l0-44.7L961.9,374z"/>
	<polygon class="f5leftBottomCorridor" points="813.8,848.5 419.8,621 530.6,557 924.7,784.5 	"/>
	<polygon class="f5frontCorner" points="1092.7,817.5 981.8,753.5 815.5,849.5 926.4,913.5 	"/>
	<polygon class="f5frontLeftFront" points="1376.7,525.5 1487.6,589.5 1094.4,816.5 983.6,752.5 	"/>
	<polygon class="f5triangleRoom" points="1563.8,329.5 1807.1,470 1543.9,622 1300.5,481.5 	"/>
	<polygon class="f5back" points="2312.9,115 2199.5,49.5 1639.1,373 1752.6,438.5 	"/>
</g>
<g id="_x35__drawing">
	<polyline class="st0" points="1320,470.3 943.7,253 960.2,243.5 842.4,175.5 767.9,218.5 885.7,286.5 363.5,588 928.1,914 
		1488.5,590.5 1543.9,622.5 1807.1,470.5 1751.7,438.5 2312.9,114.5 2200.3,49.5 2172.6,65.5 2115.5,32.5 2059.2,65 2116.3,98 
		2087.7,114.5 2030.6,81.5 1974.3,114 2031.4,147 1750.9,309 1675.5,265.5 1469.4,384.5 1394.9,341.5 1320.4,384.5 1394.9,427.5 
		1337.8,460.5 	"/>
	<polygon class="st0" points="961.9,374.5 1186.2,504 1186.2,548 961.9,677.5 887.4,677.5 662.3,547.5 662.3,504 889.6,372.8 	"/>
	<line class="st0" x1="474.8" y1="524.3" x2="880.5" y2="758.5"/>
	<line class="st0" x1="916" y1="779" x2="962.8" y2="806"/>
	<line class="st0" x1="1000.9" y1="828" x2="1037.7" y2="849.2"/>
	<path class="st0" d="M474.7,524.2"/>
	<line class="st0" x1="531.4" y1="556.9" x2="420.1" y2="621.2"/>
	<line class="st0" x1="871" y1="753" x2="832.9" y2="775"/>
	<line class="st0" x1="797.4" y1="795.5" x2="760.1" y2="817"/>
	<path class="st0" d="M926,784.7"/>
	<line class="st0" x1="936.8" y1="778" x2="887.4" y2="806.5"/>
	<line class="st0" x1="851.9" y1="827" x2="814.7" y2="848.5"/>
	<line class="st0" x1="1082.7" y1="694.7" x2="1375.9" y2="525.5"/>
	<line class="st0" x1="972.3" y1="758.5" x2="1049.4" y2="714"/>
	<line class="st0" x1="809.9" y1="330.7" x2="830.3" y2="342.5"/>
	<line class="st0" x1="866.6" y1="363.5" x2="886.6" y2="375"/>
	<line class="st0" x1="662.3" y1="547.5" x2="643.6" y2="558.3"/>
	<line class="st0" x1="1185.8" y1="544.8" x2="1209.2" y2="558.2"/>
	<line class="st0" x1="1264.6" y1="590.3" x2="1245.5" y2="579.3"/>
	<polyline class="st0" points="1337.8,460.5 1300.5,482 1320.4,493.5 	"/>
	<line class="st0" x1="1356.8" y1="514.5" x2="1412.7" y2="546.7"/>
	<line class="st0" x1="1450.8" y1="568.7" x2="1488.5" y2="590.5"/>
	<line class="st0" x1="1355.9" y1="579" x2="1320.1" y2="558.3"/>
	<line class="st0" x1="1394.1" y1="601" x2="1432.6" y2="623.2"/>
	<line class="st0" x1="1563.8" y1="330" x2="1583.7" y2="341.5"/>
	<line class="st0" x1="1619.2" y1="298" x2="1639.1" y2="309.5"/>
	<line class="st0" x1="1675.5" y1="330.5" x2="1732.7" y2="363.5"/>
	<line class="st0" x1="1648.7" y1="368" x2="1639.1" y2="373.5"/>
	<line class="st0" x1="1713.6" y1="416.5" x2="1751.7" y2="438.5"/>
	<line class="st0" x1="1620.1" y1="362.5" x2="1677.2" y2="395.5"/>
	<line class="st0" x1="1769" y1="384.5" x2="1807.1" y2="406.5"/>
	<line class="st0" x1="2172.6" y1="65.5" x2="2152.7" y2="77"/>
	<line class="st0" x1="2116.3" y1="98" x2="2135.4" y2="87"/>
	<line class="st0" x1="2087.7" y1="114.5" x2="2125" y2="136"/>
	<line class="st0" x1="2160.5" y1="156.5" x2="2200.3" y2="179.5"/>
	<line class="st0" x1="2144.5" y1="211.7" x2="2104.6" y2="188.7"/>
	<line class="st0" x1="2032.3" y1="146.5" x2="2069.6" y2="168"/>
	<line class="st0" x1="887.4" y1="677.5" x2="869.2" y2="688"/>
	<line class="st0" x1="832" y1="709.5" x2="814.3" y2="719.8"/>
	<line class="st0" x1="961.9" y1="677.5" x2="981.8" y2="689"/>
	<line class="st0" x1="1016.5" y1="709" x2="1036.4" y2="720.5"/>
	<line class="st0" x1="981.8" y1="753" x2="1019.1" y2="774.5"/>
	<line class="st0" x1="1054.6" y1="794" x2="1093.9" y2="816.7"/>
	<line class="st0" x1="1187.1" y1="677.5" x2="1150.3" y2="656.2"/>
	<line class="st0" x1="1224.3" y1="699" x2="1262.4" y2="721"/>
	<line class="st0" x1="1543" y1="405" x2="1584.6" y2="405"/>
	<line class="st0" x1="1430.4" y1="470" x2="1430.4" y2="495"/>
	<line class="st0" x1="1520.5" y1="547" x2="1563.8" y2="547"/>
	<line class="st0" x1="1676.4" y1="482" x2="1676.4" y2="458"/>
	<text transform="matrix(1 0 0 1 2041.0684 -568.3428)"><tspan x="0" y="0" style="font-family:'MyriadPro-Regular'; font-size:52.8163px;">rotate -90</tspan><tspan x="0" y="63.4" style="font-family:'MyriadPro-Regular'; font-size:52.8163px;">scale vert 86.602%</tspan><tspan x="0" y="126.8" style="font-family:'MyriadPro-Regular'; font-size:52.8163px;">shear -30</tspan><tspan x="0" y="190.1" style="font-family:'MyriadPro-Regular'; font-size:52.8163px;">rotate 30</tspan></text>
</g>
</svg>
